<svg width="187" height="39" viewBox="0 0 187 39" fill="none" xmlns="http://www.w3.org/2000/svg">
<path fill-rule="evenodd" clip-rule="evenodd" d="M19.216 38.4319C29.8287 38.4319 38.432 29.8286 38.432 19.216C38.432 8.60329 29.8287 0 19.216 0C8.60327 0 0 8.60329 0 19.216C0 29.8286 8.60327 38.4319 19.216 38.4319ZM25.2107 8.95161C25.5025 7.91511 24.4966 7.3022 23.578 7.95666L10.7543 17.0922C9.75808 17.8019 9.91479 19.216 10.9897 19.216H14.3666V19.1898H20.9478L15.5853 21.0819L13.2213 29.4804C12.9295 30.5169 13.9353 31.1298 14.854 30.4753L27.6777 21.3398C28.6739 20.6301 28.5171 19.216 27.4423 19.216H22.3214L25.2107 8.95161Z" fill="#585D61"/>
<path d="M56.284 27V10.0673H59.2777V24.2697H68.0913V27H56.284ZM75.8674 27.1677C74.5741 27.1677 73.4564 26.9042 72.5144 26.3773C71.5883 25.8504 70.8698 25.1 70.3589 24.126C69.8639 23.152 69.6164 22.0104 69.6164 20.7011C69.6164 19.3759 69.8719 18.2343 70.3828 17.2763C70.8938 16.3023 71.6123 15.5439 72.5383 15.001C73.4644 14.4582 74.5741 14.1867 75.8674 14.1867C77.1447 14.1867 78.2464 14.4582 79.1725 15.001C80.0986 15.5439 80.8091 16.3103 81.304 17.3002C81.799 18.2742 82.0465 19.4238 82.0465 20.749C82.0465 22.0423 81.799 23.176 81.304 24.1499C80.825 25.1079 80.1225 25.8504 79.1964 26.3773C78.2704 26.9042 77.1607 27.1677 75.8674 27.1677ZM75.8434 24.5092C76.6418 24.5092 77.2804 24.3336 77.7594 23.9823C78.2544 23.631 78.6137 23.168 78.8372 22.5932C79.0607 22.0184 79.1725 21.3957 79.1725 20.7251C79.1725 20.0545 79.0607 19.4238 78.8372 18.833C78.6137 18.2423 78.2544 17.7713 77.7594 17.42C77.2804 17.0528 76.6418 16.8691 75.8434 16.8691C75.0451 16.8691 74.3985 17.0528 73.9035 17.42C73.4085 17.7713 73.0493 18.2423 72.8257 18.833C72.6022 19.4078 72.4904 20.0385 72.4904 20.7251C72.4904 21.3957 72.6022 22.0264 72.8257 22.6171C73.0652 23.1919 73.4245 23.655 73.9035 24.0062C74.3985 24.3415 75.0451 24.5092 75.8434 24.5092ZM90.2537 32.772C89.3276 32.772 88.4574 32.6203 87.6431 32.3169C86.8448 32.0295 86.1662 31.5665 85.6074 30.9278C85.0645 30.3051 84.6973 29.4988 84.5057 28.5089H87.4994C87.5952 28.8921 87.7868 29.2034 88.0742 29.4429C88.3616 29.6824 88.6969 29.8501 89.0801 29.9459C89.4793 30.0576 89.8864 30.1135 90.3016 30.1135C91.0839 30.1135 91.6987 29.9538 92.1457 29.6345C92.6088 29.3152 92.9361 28.8761 93.1277 28.3173C93.3193 27.7744 93.4151 27.1756 93.4151 26.521V25.3235C93.1277 25.7865 92.7604 26.1538 92.3134 26.4252C91.8823 26.6966 91.4192 26.8882 90.9243 27C90.4453 27.0958 89.9663 27.1437 89.4873 27.1437C88.178 27.1437 87.1082 26.8563 86.278 26.2815C85.4637 25.7067 84.8649 24.9403 84.4817 23.9823C84.0985 23.0083 83.9069 21.9386 83.9069 20.773C83.9069 19.5595 84.1145 18.4578 84.5296 17.4679C84.9607 16.462 85.5994 15.6637 86.4456 15.0729C87.3078 14.4821 88.3856 14.1867 89.6789 14.1867C90.4293 14.1867 91.1318 14.3225 91.7865 14.5939C92.4571 14.8494 93.0159 15.2405 93.463 15.7674L93.6546 14.3783H96.3609V25.8983C96.3609 27.3193 96.1534 28.5408 95.7382 29.5627C95.3391 30.6005 94.6924 31.3908 93.7983 31.9337C92.9041 32.4925 91.7226 32.772 90.2537 32.772ZM90.086 24.5571C90.8365 24.5571 91.4592 24.3815 91.9541 24.0302C92.4491 23.663 92.8243 23.184 93.0798 22.5932C93.3352 21.9865 93.463 21.3318 93.463 20.6293C93.463 19.9108 93.3352 19.2641 93.0798 18.6893C92.8403 18.1145 92.473 17.6595 91.9781 17.3242C91.4991 16.9889 90.8764 16.8212 90.11 16.8212C89.2957 16.8212 88.649 17.0049 88.17 17.3721C87.691 17.7393 87.3398 18.2263 87.1162 18.833C86.9087 19.4238 86.8049 20.0545 86.8049 20.7251C86.8049 21.4276 86.9166 22.0743 87.1402 22.665C87.3637 23.2398 87.715 23.7029 88.194 24.0541C88.673 24.3894 89.3037 24.5571 90.086 24.5571ZM104.963 27.1677C103.67 27.1677 102.552 26.9042 101.61 26.3773C100.684 25.8504 99.9653 25.1 99.4544 24.126C98.9594 23.152 98.712 22.0104 98.712 20.7011C98.712 19.3759 98.9674 18.2343 99.4784 17.2763C99.9893 16.3023 100.708 15.5439 101.634 15.001C102.56 14.4582 103.67 14.1867 104.963 14.1867C106.24 14.1867 107.342 14.4582 108.268 15.001C109.194 15.5439 109.905 16.3103 110.4 17.3002C110.895 18.2742 111.142 19.4238 111.142 20.749C111.142 22.0423 110.895 23.176 110.4 24.1499C109.921 25.1079 109.218 25.8504 108.292 26.3773C107.366 26.9042 106.256 27.1677 104.963 27.1677ZM104.939 24.5092C105.737 24.5092 106.376 24.3336 106.855 23.9823C107.35 23.631 107.709 23.168 107.933 22.5932C108.156 22.0184 108.268 21.3957 108.268 20.7251C108.268 20.0545 108.156 19.4238 107.933 18.833C107.709 18.2423 107.35 17.7713 106.855 17.42C106.376 17.0528 105.737 16.8691 104.939 16.8691C104.141 16.8691 103.494 17.0528 102.999 17.42C102.504 17.7713 102.145 18.2423 101.921 18.833C101.698 19.4078 101.586 20.0385 101.586 20.7251C101.586 21.3957 101.698 22.0264 101.921 22.6171C102.161 23.1919 102.52 23.655 102.999 24.0062C103.494 24.3415 104.141 24.5092 104.939 24.5092ZM120.626 27V10.0673H123.62V27H120.626ZM126.93 31.6463V14.3783H129.66L129.804 16.0788C130.299 15.4242 130.89 14.9452 131.576 14.6418C132.263 14.3384 133.021 14.1867 133.851 14.1867C135.097 14.1867 136.127 14.4741 136.941 15.0489C137.755 15.6237 138.362 16.3981 138.761 17.3721C139.16 18.3461 139.36 19.4478 139.36 20.6772C139.36 21.9066 139.152 23.0163 138.737 24.0062C138.322 24.9802 137.691 25.7546 136.845 26.3294C136.015 26.8882 134.969 27.1677 133.708 27.1677C133.117 27.1677 132.574 27.1038 132.079 26.976C131.6 26.8483 131.169 26.6647 130.786 26.4252C130.419 26.1857 130.107 25.9143 129.852 25.6109V31.6463H126.93ZM133.253 24.5331C134.067 24.5331 134.706 24.3575 135.169 24.0062C135.632 23.639 135.967 23.168 136.175 22.5932C136.382 22.0024 136.486 21.3797 136.486 20.7251C136.486 20.0385 136.374 19.3999 136.151 18.8091C135.943 18.2183 135.6 17.7393 135.121 17.3721C134.642 17.0049 134.003 16.8212 133.205 16.8212C132.47 16.8212 131.848 17.0049 131.337 17.3721C130.842 17.7234 130.467 18.1944 130.211 18.7851C129.956 19.3759 129.828 20.0146 129.828 20.7011C129.828 21.4037 129.948 22.0503 130.187 22.6411C130.427 23.2159 130.802 23.6789 131.313 24.0302C131.824 24.3655 132.47 24.5331 133.253 24.5331ZM146.549 27.1677C145.943 27.1677 145.336 27.1038 144.729 26.976C144.138 26.8483 143.58 26.6407 143.053 26.3533C142.526 26.05 142.087 25.6428 141.736 25.1319C141.384 24.621 141.153 23.9823 141.041 23.2159H143.987C144.115 23.5672 144.314 23.8546 144.586 24.0781C144.873 24.2857 145.2 24.4453 145.568 24.5571C145.951 24.6529 146.326 24.7008 146.693 24.7008C146.917 24.7008 147.156 24.6848 147.412 24.6529C147.683 24.621 147.931 24.5571 148.154 24.4613C148.394 24.3655 148.585 24.2298 148.729 24.0541C148.873 23.8625 148.944 23.6151 148.944 23.3117C148.944 23.0243 148.865 22.8008 148.705 22.6411C148.545 22.4655 148.33 22.3297 148.058 22.2339C147.787 22.1222 147.46 22.0344 147.076 21.9705C146.39 21.8268 145.655 21.6751 144.873 21.5154C144.091 21.3398 143.412 21.0684 142.837 20.7011C142.598 20.5574 142.39 20.3898 142.215 20.1982C142.039 20.0066 141.887 19.799 141.759 19.5755C141.648 19.336 141.56 19.0805 141.496 18.8091C141.448 18.5377 141.424 18.2423 141.424 17.9229C141.424 17.2523 141.56 16.6855 141.831 16.2225C142.119 15.7435 142.494 15.3603 142.957 15.0729C143.436 14.7695 143.979 14.546 144.586 14.4023C145.192 14.2586 145.815 14.1867 146.454 14.1867C147.316 14.1867 148.098 14.3225 148.801 14.5939C149.503 14.8653 150.086 15.2805 150.549 15.8393C151.028 16.3981 151.316 17.1086 151.411 17.9708H148.633C148.553 17.5717 148.306 17.2523 147.891 17.0128C147.491 16.7733 146.981 16.6536 146.358 16.6536C146.134 16.6536 145.903 16.6775 145.663 16.7254C145.424 16.7574 145.192 16.8212 144.969 16.917C144.761 16.9969 144.586 17.1246 144.442 17.3002C144.314 17.4759 144.25 17.6914 144.25 17.9469C144.25 18.1864 144.306 18.394 144.418 18.5696C144.546 18.7452 144.729 18.8969 144.969 19.0246C145.224 19.1364 145.52 19.2322 145.855 19.312C146.398 19.4238 146.965 19.5356 147.555 19.6473C148.146 19.7591 148.657 19.8709 149.088 19.9826C149.599 20.1263 150.062 20.3339 150.477 20.6053C150.892 20.8608 151.212 21.2041 151.435 21.6352C151.675 22.0503 151.795 22.5852 151.795 23.2398C151.795 24.0062 151.635 24.6449 151.316 25.1558C151.012 25.6668 150.605 26.0659 150.094 26.3533C149.583 26.6407 149.016 26.8483 148.394 26.976C147.771 27.1038 147.156 27.1677 146.549 27.1677ZM159.524 27.1677C157.704 27.1677 156.307 26.6966 155.333 25.7546C154.375 24.8126 153.896 23.3756 153.896 21.4436V14.3783H156.818V21.252C156.818 21.9226 156.906 22.5054 157.081 23.0003C157.273 23.4953 157.568 23.8785 157.967 24.1499C158.383 24.4054 158.901 24.5331 159.524 24.5331C160.195 24.5331 160.722 24.3974 161.105 24.126C161.504 23.8386 161.783 23.4474 161.943 22.9524C162.103 22.4575 162.183 21.8907 162.183 21.252V14.3783H165.105V21.4436C165.105 23.4235 164.61 24.8764 163.62 25.8025C162.646 26.7126 161.281 27.1677 159.524 27.1677ZM167.883 27V14.3783H170.566L170.757 15.8153C171.077 15.3842 171.42 15.0569 171.787 14.8334C172.171 14.5939 172.562 14.4262 172.961 14.3304C173.376 14.2346 173.767 14.1867 174.134 14.1867C174.933 14.1867 175.611 14.3464 176.17 14.6657C176.745 14.9851 177.192 15.4641 177.511 16.1027C177.831 15.6557 178.19 15.2964 178.589 15.025C178.988 14.7376 179.411 14.53 179.858 14.4023C180.306 14.2586 180.777 14.1867 181.272 14.1867C182.246 14.1867 183.028 14.3943 183.619 14.8094C184.209 15.2086 184.641 15.7674 184.912 16.4859C185.183 17.1885 185.319 17.9948 185.319 18.9049V27H182.397V19.8389C182.397 19.5196 182.381 19.1843 182.349 18.833C182.317 18.4818 182.23 18.1545 182.086 17.8511C181.958 17.5477 181.767 17.3002 181.511 17.1086C181.256 16.917 180.896 16.8212 180.433 16.8212C179.97 16.8212 179.587 16.925 179.284 17.1326C178.996 17.3242 178.757 17.5876 178.565 17.9229C178.39 18.2423 178.262 18.6015 178.182 19.0007C178.118 19.3839 178.086 19.7671 178.086 20.1503V27H175.164V19.815C175.164 19.5116 175.14 19.1923 175.092 18.857C175.061 18.5057 174.981 18.1784 174.853 17.875C174.741 17.5557 174.55 17.3002 174.278 17.1086C174.023 16.917 173.663 16.8212 173.2 16.8212C172.53 16.8212 172.019 17.0049 171.668 17.3721C171.332 17.7393 171.101 18.1864 170.973 18.7133C170.861 19.2402 170.805 19.7431 170.805 20.2221V27H167.883Z" fill="#585D61"/>
</svg>
