<svg width="187" height="39" viewBox="0 0 187 39" fill="none" xmlns="http://www.w3.org/2000/svg">
<path fill-rule="evenodd" clip-rule="evenodd" d="M8.285 4.37643C6.94239 5.31522 5.72832 6.42517 4.67439 7.67464C8.98123 7.2748 14.4529 7.9277 20.8055 11.104C27.5892 14.4958 33.0517 14.6104 36.8534 13.8771C36.5084 12.8327 36.0741 11.829 35.5597 10.8747C31.2079 11.3337 25.6288 10.7262 19.1268 7.4753C14.998 5.41089 11.3585 4.56049 8.285 4.37643ZM33.0176 7.25633C29.5809 3.41651 24.5865 1 19.0277 1C17.3952 1 15.8113 1.20844 14.3014 1.60012C16.3464 2.15813 18.5189 2.97449 20.8055 4.11779C25.5659 6.49795 29.6757 7.26432 33.0176 7.25633ZM37.6662 17.5431C33.0734 18.45 26.7312 18.2637 19.1268 14.4615C12.0174 10.9068 6.35901 10.9516 2.54277 11.7997C2.34579 11.8434 2.15344 11.8894 1.96574 11.9373C1.4661 13.0239 1.06727 14.1666 0.781105 15.3531C1.08674 15.2715 1.40258 15.1939 1.72843 15.1214C6.3582 14.0926 12.8997 14.1373 20.8055 18.0902C27.9149 21.6449 33.5733 21.6001 37.3896 20.7521C37.5204 20.7231 37.6492 20.693 37.7759 20.6621C37.7898 20.3662 37.7967 20.0684 37.7967 19.769C37.7967 19.0159 37.7524 18.2731 37.6662 17.5431ZM37.1631 24.623C32.6149 25.4181 26.4574 25.1129 19.1268 21.4477C12.0174 17.8931 6.35901 17.9378 2.54277 18.7859C1.69567 18.9741 0.933639 19.2033 0.261417 19.4454C0.259584 19.553 0.258667 19.6609 0.258667 19.769C0.258667 30.1349 8.66184 38.5381 19.0277 38.5381C27.715 38.5381 35.0239 32.6361 37.1631 24.623Z" fill="#585D61"/>
<path d="M55.7041 27V10.0673H58.6979V24.2697H67.5115V27H55.7041ZM75.2876 27.1677C73.9943 27.1677 72.8766 26.9042 71.9346 26.3773C71.0085 25.8504 70.29 25.1 69.7791 24.126C69.2841 23.152 69.0366 22.0104 69.0366 20.7011C69.0366 19.3759 69.2921 18.2343 69.803 17.2763C70.3139 16.3023 71.0324 15.5439 71.9585 15.001C72.8846 14.4582 73.9943 14.1867 75.2876 14.1867C76.5649 14.1867 77.6666 14.4582 78.5927 15.001C79.5187 15.5439 80.2292 16.3103 80.7242 17.3002C81.2192 18.2742 81.4667 19.4238 81.4667 20.749C81.4667 22.0423 81.2192 23.176 80.7242 24.1499C80.2452 25.1079 79.5427 25.8504 78.6166 26.3773C77.6905 26.9042 76.5809 27.1677 75.2876 27.1677ZM75.2636 24.5092C76.0619 24.5092 76.7006 24.3336 77.1796 23.9823C77.6746 23.631 78.0338 23.168 78.2574 22.5932C78.4809 22.0184 78.5927 21.3957 78.5927 20.7251C78.5927 20.0545 78.4809 19.4238 78.2574 18.833C78.0338 18.2423 77.6746 17.7713 77.1796 17.42C76.7006 17.0528 76.0619 16.8691 75.2636 16.8691C74.4653 16.8691 73.8186 17.0528 73.3237 17.42C72.8287 17.7713 72.4694 18.2423 72.2459 18.833C72.0224 19.4078 71.9106 20.0385 71.9106 20.7251C71.9106 21.3957 72.0224 22.0264 72.2459 22.6171C72.4854 23.1919 72.8447 23.655 73.3237 24.0062C73.8186 24.3415 74.4653 24.5092 75.2636 24.5092ZM89.6738 32.772C88.7478 32.772 87.8776 32.6203 87.0633 32.3169C86.265 32.0295 85.5864 31.5665 85.0275 30.9278C84.4847 30.3051 84.1174 29.4988 83.9258 28.5089H86.9196C87.0154 28.8921 87.207 29.2034 87.4944 29.4429C87.7818 29.6824 88.1171 29.8501 88.5003 29.9459C88.8995 30.0576 89.3066 30.1135 89.7217 30.1135C90.5041 30.1135 91.1188 29.9538 91.5659 29.6345C92.0289 29.3152 92.3562 28.8761 92.5478 28.3173C92.7394 27.7744 92.8352 27.1756 92.8352 26.521V25.3235C92.5478 25.7865 92.1806 26.1538 91.7335 26.4252C91.3024 26.6966 90.8394 26.8882 90.3444 27C89.8654 27.0958 89.3864 27.1437 88.9074 27.1437C87.5982 27.1437 86.5284 26.8563 85.6981 26.2815C84.8838 25.7067 84.2851 24.9403 83.9019 23.9823C83.5187 23.0083 83.3271 21.9386 83.3271 20.773C83.3271 19.5595 83.5347 18.4578 83.9498 17.4679C84.3809 16.462 85.0196 15.6637 85.8658 15.0729C86.728 14.4821 87.8057 14.1867 89.099 14.1867C89.8495 14.1867 90.552 14.3225 91.2066 14.5939C91.8772 14.8494 92.4361 15.2405 92.8831 15.7674L93.0747 14.3783H95.7811V25.8983C95.7811 27.3193 95.5735 28.5408 95.1584 29.5627C94.7592 30.6005 94.1126 31.3908 93.2184 31.9337C92.3243 32.4925 91.1428 32.772 89.6738 32.772ZM89.5062 24.5571C90.2566 24.5571 90.8793 24.3815 91.3743 24.0302C91.8693 23.663 92.2445 23.184 92.4999 22.5932C92.7554 21.9865 92.8831 21.3318 92.8831 20.6293C92.8831 19.9108 92.7554 19.2641 92.4999 18.6893C92.2604 18.1145 91.8932 17.6595 91.3982 17.3242C90.9192 16.9889 90.2965 16.8212 89.5301 16.8212C88.7158 16.8212 88.0692 17.0049 87.5902 17.3721C87.1112 17.7393 86.7599 18.2263 86.5364 18.833C86.3288 19.4238 86.225 20.0545 86.225 20.7251C86.225 21.4276 86.3368 22.0743 86.5603 22.665C86.7839 23.2398 87.1351 23.7029 87.6141 24.0541C88.0931 24.3894 88.7238 24.5571 89.5062 24.5571ZM104.383 27.1677C103.09 27.1677 101.972 26.9042 101.03 26.3773C100.104 25.8504 99.3855 25.1 98.8746 24.126C98.3796 23.152 98.1321 22.0104 98.1321 20.7011C98.1321 19.3759 98.3876 18.2343 98.8985 17.2763C99.4095 16.3023 100.128 15.5439 101.054 15.001C101.98 14.4582 103.09 14.1867 104.383 14.1867C105.66 14.1867 106.762 14.4582 107.688 15.001C108.614 15.5439 109.325 16.3103 109.82 17.3002C110.315 18.2742 110.562 19.4238 110.562 20.749C110.562 22.0423 110.315 23.176 109.82 24.1499C109.341 25.1079 108.638 25.8504 107.712 26.3773C106.786 26.9042 105.676 27.1677 104.383 27.1677ZM104.359 24.5092C105.157 24.5092 105.796 24.3336 106.275 23.9823C106.77 23.631 107.129 23.168 107.353 22.5932C107.576 22.0184 107.688 21.3957 107.688 20.7251C107.688 20.0545 107.576 19.4238 107.353 18.833C107.129 18.2423 106.77 17.7713 106.275 17.42C105.796 17.0528 105.157 16.8691 104.359 16.8691C103.561 16.8691 102.914 17.0528 102.419 17.42C101.924 17.7713 101.565 18.2423 101.341 18.833C101.118 19.4078 101.006 20.0385 101.006 20.7251C101.006 21.3957 101.118 22.0264 101.341 22.6171C101.581 23.1919 101.94 23.655 102.419 24.0062C102.914 24.3415 103.561 24.5092 104.359 24.5092ZM120.046 27V10.0673H123.04V27H120.046ZM126.35 31.6463V14.3783H129.08L129.224 16.0788C129.719 15.4242 130.31 14.9452 130.996 14.6418C131.683 14.3384 132.441 14.1867 133.272 14.1867C134.517 14.1867 135.547 14.4741 136.361 15.0489C137.175 15.6237 137.782 16.3981 138.181 17.3721C138.581 18.3461 138.78 19.4478 138.78 20.6772C138.78 21.9066 138.573 23.0163 138.157 24.0062C137.742 24.9802 137.112 25.7546 136.265 26.3294C135.435 26.8882 134.389 27.1677 133.128 27.1677C132.537 27.1677 131.994 27.1038 131.499 26.976C131.02 26.8483 130.589 26.6647 130.206 26.4252C129.839 26.1857 129.527 25.9143 129.272 25.6109V31.6463H126.35ZM132.673 24.5331C133.487 24.5331 134.126 24.3575 134.589 24.0062C135.052 23.639 135.387 23.168 135.595 22.5932C135.802 22.0024 135.906 21.3797 135.906 20.7251C135.906 20.0385 135.794 19.3999 135.571 18.8091C135.363 18.2183 135.02 17.7393 134.541 17.3721C134.062 17.0049 133.423 16.8212 132.625 16.8212C131.891 16.8212 131.268 17.0049 130.757 17.3721C130.262 17.7234 129.887 18.1944 129.631 18.7851C129.376 19.3759 129.248 20.0146 129.248 20.7011C129.248 21.4037 129.368 22.0503 129.607 22.6411C129.847 23.2159 130.222 23.6789 130.733 24.0302C131.244 24.3655 131.891 24.5331 132.673 24.5331ZM145.97 27.1677C145.363 27.1677 144.756 27.1038 144.149 26.976C143.559 26.8483 143 26.6407 142.473 26.3533C141.946 26.05 141.507 25.6428 141.156 25.1319C140.804 24.621 140.573 23.9823 140.461 23.2159H143.407C143.535 23.5672 143.734 23.8546 144.006 24.0781C144.293 24.2857 144.62 24.4453 144.988 24.5571C145.371 24.6529 145.746 24.7008 146.113 24.7008C146.337 24.7008 146.576 24.6848 146.832 24.6529C147.103 24.621 147.351 24.5571 147.574 24.4613C147.814 24.3655 148.005 24.2298 148.149 24.0541C148.293 23.8625 148.365 23.6151 148.365 23.3117C148.365 23.0243 148.285 22.8008 148.125 22.6411C147.965 22.4655 147.75 22.3297 147.478 22.2339C147.207 22.1222 146.88 22.0344 146.497 21.9705C145.81 21.8268 145.075 21.6751 144.293 21.5154C143.511 21.3398 142.832 21.0684 142.257 20.7011C142.018 20.5574 141.81 20.3898 141.635 20.1982C141.459 20.0066 141.307 19.799 141.18 19.5755C141.068 19.336 140.98 19.0805 140.916 18.8091C140.868 18.5377 140.844 18.2423 140.844 17.9229C140.844 17.2523 140.98 16.6855 141.251 16.2225C141.539 15.7435 141.914 15.3603 142.377 15.0729C142.856 14.7695 143.399 14.546 144.006 14.4023C144.612 14.2586 145.235 14.1867 145.874 14.1867C146.736 14.1867 147.518 14.3225 148.221 14.5939C148.923 14.8653 149.506 15.2805 149.969 15.8393C150.448 16.3981 150.736 17.1086 150.831 17.9708H148.053C147.973 17.5717 147.726 17.2523 147.311 17.0128C146.912 16.7733 146.401 16.6536 145.778 16.6536C145.554 16.6536 145.323 16.6775 145.083 16.7254C144.844 16.7574 144.612 16.8212 144.389 16.917C144.181 16.9969 144.006 17.1246 143.862 17.3002C143.734 17.4759 143.67 17.6914 143.67 17.9469C143.67 18.1864 143.726 18.394 143.838 18.5696C143.966 18.7452 144.149 18.8969 144.389 19.0246C144.644 19.1364 144.94 19.2322 145.275 19.312C145.818 19.4238 146.385 19.5356 146.976 19.6473C147.566 19.7591 148.077 19.8709 148.508 19.9826C149.019 20.1263 149.482 20.3339 149.897 20.6053C150.313 20.8608 150.632 21.2041 150.855 21.6352C151.095 22.0503 151.215 22.5852 151.215 23.2398C151.215 24.0062 151.055 24.6449 150.736 25.1558C150.432 25.6668 150.025 26.0659 149.514 26.3533C149.003 26.6407 148.436 26.8483 147.814 26.976C147.191 27.1038 146.576 27.1677 145.97 27.1677ZM158.944 27.1677C157.124 27.1677 155.727 26.6966 154.753 25.7546C153.795 24.8126 153.316 23.3756 153.316 21.4436V14.3783H156.238V21.252C156.238 21.9226 156.326 22.5054 156.501 23.0003C156.693 23.4953 156.988 23.8785 157.388 24.1499C157.803 24.4054 158.322 24.5331 158.944 24.5331C159.615 24.5331 160.142 24.3974 160.525 24.126C160.924 23.8386 161.204 23.4474 161.363 22.9524C161.523 22.4575 161.603 21.8907 161.603 21.252V14.3783H164.525V21.4436C164.525 23.4235 164.03 24.8764 163.04 25.8025C162.066 26.7126 160.701 27.1677 158.944 27.1677ZM167.304 27V14.3783H169.986L170.178 15.8153C170.497 15.3842 170.84 15.0569 171.208 14.8334C171.591 14.5939 171.982 14.4262 172.381 14.3304C172.796 14.2346 173.187 14.1867 173.555 14.1867C174.353 14.1867 175.032 14.3464 175.59 14.6657C176.165 14.9851 176.612 15.4641 176.932 16.1027C177.251 15.6557 177.61 15.2964 178.009 15.025C178.408 14.7376 178.832 14.53 179.279 14.4023C179.726 14.2586 180.197 14.1867 180.692 14.1867C181.666 14.1867 182.448 14.3943 183.039 14.8094C183.63 15.2086 184.061 15.7674 184.332 16.4859C184.604 17.1885 184.739 17.9948 184.739 18.9049V27H181.817V19.8389C181.817 19.5196 181.801 19.1843 181.769 18.833C181.738 18.4818 181.65 18.1545 181.506 17.8511C181.378 17.5477 181.187 17.3002 180.931 17.1086C180.676 16.917 180.316 16.8212 179.853 16.8212C179.39 16.8212 179.007 16.925 178.704 17.1326C178.416 17.3242 178.177 17.5876 177.985 17.9229C177.81 18.2423 177.682 18.6015 177.602 19.0007C177.538 19.3839 177.506 19.7671 177.506 20.1503V27H174.584V19.815C174.584 19.5116 174.561 19.1923 174.513 18.857C174.481 18.5057 174.401 18.1784 174.273 17.875C174.161 17.5557 173.97 17.3002 173.698 17.1086C173.443 16.917 173.084 16.8212 172.621 16.8212C171.95 16.8212 171.439 17.0049 171.088 17.3721C170.752 17.7393 170.521 18.1864 170.393 18.7133C170.281 19.2402 170.226 19.7431 170.226 20.2221V27H167.304Z" fill="#585D61"/>
</svg>
