<svg width="20" height="20" viewBox="0 0 20 20" fill="none" xmlns="http://www.w3.org/2000/svg">
<path d="M10 0.00976562C8.07164 0.00976563 6.18657 0.581593 4.58319 1.65294C2.97982 2.72428 1.73013 4.24702 0.992179 6.0286C0.254225 7.81018 0.061142 9.77058 0.437348 11.6619C0.813554 13.5532 1.74215 15.2905 3.10571 16.6541C4.46928 18.0176 6.20656 18.9462 8.09787 19.3224C9.98919 19.6986 11.9496 19.5055 13.7312 18.7676C15.5127 18.0296 17.0355 16.78 18.1068 15.1766C19.1782 13.5732 19.75 11.6881 19.75 9.75977C19.7473 7.17474 18.7192 4.69638 16.8913 2.86849C15.0634 1.0406 12.585 0.0124955 10 0.00976562ZM15.25 10.5098H10C9.80109 10.5098 9.61033 10.4307 9.46967 10.2901C9.32902 10.1494 9.25 9.95868 9.25 9.75977V4.50977C9.25 4.31085 9.32902 4.12009 9.46967 3.97944C9.61033 3.83878 9.80109 3.75977 10 3.75977C10.1989 3.75977 10.3897 3.83878 10.5303 3.97944C10.671 4.12009 10.75 4.31085 10.75 4.50977V9.00977H15.25C15.4489 9.00977 15.6397 9.08878 15.7803 9.22944C15.921 9.37009 16 9.56085 16 9.75977C16 9.95868 15.921 10.1494 15.7803 10.2901C15.6397 10.4307 15.4489 10.5098 15.25 10.5098Z" fill="#165CFD"/>
</svg>
