<svg width="41" height="41" viewBox="0 0 41 41" fill="none" xmlns="http://www.w3.org/2000/svg">
<path d="M33.7571 23.9062C33.7607 24.4796 33.5865 25.04 33.2585 25.5103C32.9305 25.9806 32.4648 26.3377 31.9255 26.5324L22.8587 29.8828L19.5189 38.9566C19.3211 39.494 18.9632 39.9577 18.4936 40.2852C18.024 40.6128 17.4653 40.7884 16.8927 40.7884C16.3201 40.7884 15.7614 40.6128 15.2917 40.2852C14.8221 39.9577 14.4643 39.494 14.2665 38.9566L10.9056 29.8828L1.83176 26.543C1.29444 26.3452 0.830728 25.9874 0.503176 25.5177C0.175624 25.0481 0 24.4894 0 23.9168C0 23.3442 0.175624 22.7855 0.503176 22.3158C0.830728 21.8462 1.29444 21.4884 1.83176 21.2906L10.9056 17.9297L14.2454 8.85586C14.4432 8.31855 14.801 7.85483 15.2707 7.52728C15.7403 7.19973 16.299 7.0241 16.8716 7.0241C17.4442 7.0241 18.0029 7.19973 18.4725 7.52728C18.9422 7.85483 19.3 8.31855 19.4978 8.85586L22.8587 17.9297L31.9325 21.2695C32.4722 21.466 32.9376 21.8252 33.2644 22.2975C33.5913 22.7698 33.7634 23.3319 33.7571 23.9062ZM23.9134 7.03125H26.7259V9.84375C26.7259 10.2167 26.8741 10.5744 27.1378 10.8381C27.4015 11.1018 27.7592 11.25 28.1321 11.25C28.5051 11.25 28.8628 11.1018 29.1265 10.8381C29.3902 10.5744 29.5384 10.2167 29.5384 9.84375V7.03125H32.3509C32.7239 7.03125 33.0815 6.88309 33.3453 6.61937C33.609 6.35565 33.7571 5.99796 33.7571 5.625C33.7571 5.25204 33.609 4.89435 33.3453 4.63063C33.0815 4.36691 32.7239 4.21875 32.3509 4.21875H29.5384V1.40625C29.5384 1.03329 29.3902 0.675604 29.1265 0.411881C28.8628 0.148158 28.5051 0 28.1321 0C27.7592 0 27.4015 0.148158 27.1378 0.411881C26.8741 0.675604 26.7259 1.03329 26.7259 1.40625V4.21875H23.9134C23.5404 4.21875 23.1827 4.36691 22.919 4.63063C22.6553 4.89435 22.5071 5.25204 22.5071 5.625C22.5071 5.99796 22.6553 6.35565 22.919 6.61937C23.1827 6.88309 23.5404 7.03125 23.9134 7.03125ZM39.3821 12.6562H37.9759V11.25C37.9759 10.877 37.8277 10.5194 37.564 10.2556C37.3003 9.99191 36.9426 9.84375 36.5696 9.84375C36.1967 9.84375 35.839 9.99191 35.5753 10.2556C35.3116 10.5194 35.1634 10.877 35.1634 11.25V12.6562H33.7571C33.3842 12.6562 33.0265 12.8044 32.7628 13.0681C32.4991 13.3319 32.3509 13.6895 32.3509 14.0625C32.3509 14.4355 32.4991 14.7931 32.7628 15.0569C33.0265 15.3206 33.3842 15.4688 33.7571 15.4688H35.1634V16.875C35.1634 17.248 35.3116 17.6056 35.5753 17.8694C35.839 18.1331 36.1967 18.2812 36.5696 18.2812C36.9426 18.2812 37.3003 18.1331 37.564 17.8694C37.8277 17.6056 37.9759 17.248 37.9759 16.875V15.4688H39.3821C39.7551 15.4688 40.1128 15.3206 40.3765 15.0569C40.6402 14.7931 40.7884 14.4355 40.7884 14.0625C40.7884 13.6895 40.6402 13.3319 40.3765 13.0681C40.1128 12.8044 39.7551 12.6562 39.3821 12.6562Z" fill="white" fill-opacity="0.2"/>
</svg>
