<svg width="102" height="18" viewBox="0 0 102 18" fill="none" xmlns="http://www.w3.org/2000/svg">
<rect width="18" height="18" fill="#1B9932"/>
<g clip-path="url(#clip0_1998_1174)">
<path d="M13.9823 8.38358L11.8729 10.2037L12.5156 12.9258C12.5511 13.0735 12.5419 13.2285 12.4894 13.3711C12.4368 13.5137 12.3431 13.6375 12.2203 13.7268C12.0974 13.8162 11.9507 13.8672 11.7989 13.8733C11.6471 13.8794 11.4968 13.8403 11.3672 13.7611L8.99997 12.3042L6.63138 13.7611C6.50173 13.8399 6.35168 13.8785 6.2001 13.8722C6.04852 13.8659 5.9022 13.8149 5.77957 13.7256C5.65693 13.6363 5.56346 13.5127 5.51093 13.3703C5.45839 13.228 5.44914 13.0733 5.48435 12.9258L6.12935 10.2037L4.01997 8.38358C3.90527 8.28444 3.82231 8.15371 3.78146 8.00771C3.74061 7.86171 3.74368 7.70691 3.79029 7.56264C3.8369 7.41838 3.92497 7.29104 4.04352 7.19653C4.16206 7.10202 4.30582 7.04453 4.45685 7.03123L7.22247 6.80811L8.28935 4.22623C8.34709 4.08552 8.44538 3.96516 8.57171 3.88046C8.69804 3.79575 8.8467 3.75052 8.9988 3.75052C9.1509 3.75052 9.29956 3.79575 9.42589 3.88046C9.55222 3.96516 9.65051 4.08552 9.70825 4.22623L10.7747 6.80811L13.5403 7.03123C13.6916 7.04403 13.8358 7.1012 13.9548 7.19558C14.0737 7.28996 14.1622 7.41735 14.2091 7.56179C14.256 7.70623 14.2592 7.8613 14.2184 8.00757C14.1775 8.15384 14.0944 8.2848 13.9795 8.38405L13.9823 8.38358Z" fill="white"/>
</g>
<rect width="18" height="18" transform="translate(21)" fill="#1B9932"/>
<g clip-path="url(#clip1_1998_1174)">
<path d="M34.9823 8.38358L32.8729 10.2037L33.5156 12.9258C33.5511 13.0735 33.5419 13.2285 33.4894 13.3711C33.4368 13.5137 33.3431 13.6375 33.2203 13.7268C33.0974 13.8162 32.9507 13.8672 32.7989 13.8733C32.6471 13.8794 32.4968 13.8403 32.3672 13.7611L30 12.3042L27.6314 13.7611C27.5017 13.8399 27.3517 13.8785 27.2001 13.8722C27.0485 13.8659 26.9022 13.8149 26.7796 13.7256C26.6569 13.6363 26.5635 13.5127 26.5109 13.3703C26.4584 13.228 26.4491 13.0733 26.4843 12.9258L27.1293 10.2037L25.02 8.38358C24.9053 8.28444 24.8223 8.15371 24.7815 8.00771C24.7406 7.86171 24.7437 7.70691 24.7903 7.56264C24.8369 7.41838 24.925 7.29104 25.0435 7.19653C25.1621 7.10202 25.3058 7.04453 25.4568 7.03123L28.2225 6.80811L29.2893 4.22623C29.3471 4.08552 29.4454 3.96516 29.5717 3.88046C29.698 3.79575 29.8467 3.75052 29.9988 3.75052C30.1509 3.75052 30.2996 3.79575 30.4259 3.88046C30.5522 3.96516 30.6505 4.08552 30.7083 4.22623L31.7747 6.80811L34.5403 7.03123C34.6916 7.04403 34.8358 7.1012 34.9548 7.19558C35.0737 7.28996 35.1622 7.41735 35.2091 7.56179C35.256 7.70623 35.2592 7.8613 35.2184 8.00757C35.1775 8.15384 35.0944 8.2848 34.9795 8.38405L34.9823 8.38358Z" fill="white"/>
</g>
<rect width="18" height="18" transform="translate(42)" fill="#1B9932"/>
<g clip-path="url(#clip2_1998_1174)">
<path d="M55.9823 8.38358L53.8729 10.2037L54.5156 12.9258C54.5511 13.0735 54.5419 13.2285 54.4894 13.3711C54.4368 13.5137 54.3431 13.6375 54.2203 13.7268C54.0974 13.8162 53.9507 13.8672 53.7989 13.8733C53.6471 13.8794 53.4968 13.8403 53.3672 13.7611L51 12.3042L48.6314 13.7611C48.5017 13.8399 48.3517 13.8785 48.2001 13.8722C48.0485 13.8659 47.9022 13.8149 47.7796 13.7256C47.6569 13.6363 47.5635 13.5127 47.5109 13.3703C47.4584 13.228 47.4491 13.0733 47.4843 12.9258L48.1293 10.2037L46.02 8.38358C45.9053 8.28444 45.8223 8.15371 45.7815 8.00771C45.7406 7.86171 45.7437 7.70691 45.7903 7.56264C45.8369 7.41838 45.925 7.29104 46.0435 7.19653C46.1621 7.10202 46.3058 7.04453 46.4568 7.03123L49.2225 6.80811L50.2893 4.22623C50.3471 4.08552 50.4454 3.96516 50.5717 3.88046C50.698 3.79575 50.8467 3.75052 50.9988 3.75052C51.1509 3.75052 51.2996 3.79575 51.4259 3.88046C51.5522 3.96516 51.6505 4.08552 51.7083 4.22623L52.7747 6.80811L55.5403 7.03123C55.6916 7.04403 55.8358 7.1012 55.9548 7.19558C56.0737 7.28996 56.1622 7.41735 56.2091 7.56179C56.256 7.70623 56.2592 7.8613 56.2184 8.00757C56.1775 8.15384 56.0944 8.2848 55.9795 8.38405L55.9823 8.38358Z" fill="white"/>
</g>
<rect width="18" height="18" transform="translate(63)" fill="#1B9932"/>
<g clip-path="url(#clip3_1998_1174)">
<path d="M76.9823 8.38358L74.8729 10.2037L75.5156 12.9258C75.5511 13.0735 75.5419 13.2285 75.4894 13.3711C75.4368 13.5137 75.3431 13.6375 75.2203 13.7268C75.0974 13.8162 74.9507 13.8672 74.7989 13.8733C74.6471 13.8794 74.4968 13.8403 74.3672 13.7611L72 12.3042L69.6314 13.7611C69.5017 13.8399 69.3517 13.8785 69.2001 13.8722C69.0485 13.8659 68.9022 13.8149 68.7796 13.7256C68.6569 13.6363 68.5635 13.5127 68.5109 13.3703C68.4584 13.228 68.4491 13.0733 68.4843 12.9258L69.1293 10.2037L67.02 8.38358C66.9053 8.28444 66.8223 8.15371 66.7815 8.00771C66.7406 7.86171 66.7437 7.70691 66.7903 7.56264C66.8369 7.41838 66.925 7.29104 67.0435 7.19653C67.1621 7.10202 67.3058 7.04453 67.4568 7.03123L70.2225 6.80811L71.2893 4.22623C71.3471 4.08552 71.4454 3.96516 71.5717 3.88046C71.698 3.79575 71.8467 3.75052 71.9988 3.75052C72.1509 3.75052 72.2996 3.79575 72.4259 3.88046C72.5522 3.96516 72.6505 4.08552 72.7083 4.22623L73.7747 6.80811L76.5403 7.03123C76.6916 7.04403 76.8358 7.1012 76.9548 7.19558C77.0737 7.28996 77.1622 7.41735 77.2091 7.56179C77.256 7.70623 77.2592 7.8613 77.2184 8.00757C77.1775 8.15384 77.0944 8.2848 76.9795 8.38405L76.9823 8.38358Z" fill="white"/>
</g>
<rect width="18" height="18" transform="translate(84)" fill="#1B9932"/>
<g clip-path="url(#clip4_1998_1174)">
<path d="M97.9823 8.38358L95.8729 10.2037L96.5156 12.9258C96.5511 13.0735 96.5419 13.2285 96.4894 13.3711C96.4368 13.5137 96.3431 13.6375 96.2203 13.7268C96.0974 13.8162 95.9507 13.8672 95.7989 13.8733C95.6471 13.8794 95.4968 13.8403 95.3672 13.7611L93 12.3042L90.6314 13.7611C90.5017 13.8399 90.3517 13.8785 90.2001 13.8722C90.0485 13.8659 89.9022 13.8149 89.7796 13.7256C89.6569 13.6363 89.5635 13.5127 89.5109 13.3703C89.4584 13.228 89.4491 13.0733 89.4843 12.9258L90.1293 10.2037L88.02 8.38358C87.9053 8.28444 87.8223 8.15371 87.7815 8.00771C87.7406 7.86171 87.7437 7.70691 87.7903 7.56264C87.8369 7.41838 87.925 7.29104 88.0435 7.19653C88.1621 7.10202 88.3058 7.04453 88.4568 7.03123L91.2225 6.80811L92.2893 4.22623C92.3471 4.08552 92.4454 3.96516 92.5717 3.88046C92.698 3.79575 92.8467 3.75052 92.9988 3.75052C93.1509 3.75052 93.2996 3.79575 93.4259 3.88046C93.5522 3.96516 93.6505 4.08552 93.7083 4.22623L94.7747 6.80811L97.5403 7.03123C97.6916 7.04403 97.8358 7.1012 97.9548 7.19558C98.0737 7.28996 98.1622 7.41735 98.2091 7.56179C98.256 7.70623 98.2592 7.8613 98.2184 8.00757C98.1775 8.15384 98.0944 8.2848 97.9795 8.38405L97.9823 8.38358Z" fill="white"/>
</g>
<defs>
<clipPath id="clip0_1998_1174">
<rect width="12" height="12" fill="white" transform="translate(3 3)"/>
</clipPath>
<clipPath id="clip1_1998_1174">
<rect width="12" height="12" fill="white" transform="translate(24 3)"/>
</clipPath>
<clipPath id="clip2_1998_1174">
<rect width="12" height="12" fill="white" transform="translate(45 3)"/>
</clipPath>
<clipPath id="clip3_1998_1174">
<rect width="12" height="12" fill="white" transform="translate(66 3)"/>
</clipPath>
<clipPath id="clip4_1998_1174">
<rect width="12" height="12" fill="white" transform="translate(87 3)"/>
</clipPath>
</defs>
</svg>
