<svg width="213" height="28" viewBox="0 0 213 28" fill="none" xmlns="http://www.w3.org/2000/svg">
<g clip-path="url(#clip0_1998_1132)">
<path d="M9.03223 -0.112549L16.2615 6.06766C16.6907 6.43457 16.9381 6.97299 16.9381 7.54006V12.1978L9.70883 6.01759C9.27959 5.65068 9.03223 5.11225 9.03223 4.54515V-0.112549Z" fill="#1B9932"/>
<path d="M9.03223 27.8875L16.2615 21.7072C16.6907 21.3404 16.9381 20.8019 16.9381 20.2348V15.5771L9.70883 21.7573C9.27959 22.1242 9.03223 22.6627 9.03223 23.2297V27.8875Z" fill="#1B9932"/>
<path d="M0.407715 6.40469L7.53866 12.4668C7.88438 12.7607 8.32223 12.9219 8.77456 12.9219H14.5254L7.41197 6.86123C7.06601 6.56644 6.62755 6.40469 6.17444 6.40469H0.407715Z" fill="#1B9932"/>
<path d="M0.407715 21.3702L7.4948 15.3116C7.84115 15.0155 8.28061 14.853 8.73476 14.853H14.5425L7.41156 20.915C7.06583 21.209 6.62802 21.3702 6.17564 21.3702H0.407715Z" fill="#1B9932"/>
<path d="M26.7606 -0.112549L19.5313 6.06766C19.1021 6.43457 18.8547 6.97299 18.8547 7.54006V12.1978L26.084 6.01759C26.5132 5.65068 26.7606 5.11225 26.7606 4.54515V-0.112549Z" fill="#1B9932"/>
<path d="M26.7606 27.8875L19.5313 21.7072C19.1021 21.3404 18.8547 20.8019 18.8547 20.2348V15.5771L26.084 21.7573C26.5132 22.1242 26.7606 22.6627 26.7606 23.2297V27.8875Z" fill="#1B9932"/>
<path d="M35.3852 6.40469L28.2543 12.4668C27.9086 12.7607 27.4707 12.9219 27.0184 12.9219H21.2676L28.381 6.86123C28.727 6.56644 29.1654 6.40469 29.6185 6.40469H35.3852Z" fill="#1B9932"/>
<path d="M35.3853 21.3702L28.2982 15.3116C27.9518 15.0155 27.5124 14.853 27.0582 14.853H21.2505L28.3814 20.915C28.7272 21.209 29.1649 21.3702 29.6173 21.3702H35.3853Z" fill="#1B9932"/>
</g>
<path d="M47.3465 25V3.12153H51.2968V25H47.3465ZM49.2305 25V21.8702H62.0537V25H49.2305ZM72.6684 25.3039C71.0883 25.3039 69.6297 25.0304 68.2927 24.4834C66.9557 23.9365 65.7909 23.1565 64.7982 22.1436C63.8259 21.1308 63.0662 19.9355 62.5192 18.558C61.9925 17.1602 61.7292 15.6307 61.7292 13.9696C61.7292 11.7615 62.1951 9.82688 63.127 8.16574C64.0588 6.48433 65.3452 5.1777 66.9861 4.24584C68.6472 3.29372 70.5312 2.81767 72.638 2.81767C74.7854 2.81767 76.6795 3.29372 78.3203 4.24584C79.9815 5.1777 81.278 6.48433 82.2098 8.16574C83.1417 9.84714 83.6076 11.7919 83.6076 14C83.6076 15.6611 83.3342 17.1805 82.7872 18.558C82.2605 19.9355 81.5008 21.1308 80.5082 22.1436C79.5358 23.1565 78.3811 23.9365 77.0441 24.4834C75.7071 25.0304 74.2485 25.3039 72.6684 25.3039ZM72.638 22.0829C74.0156 22.0829 75.2209 21.7385 76.254 21.0497C77.3075 20.361 78.1279 19.4088 78.7154 18.1934C79.3028 16.9576 79.5966 15.5396 79.5966 13.9392C79.5966 12.3591 79.3028 10.9816 78.7154 9.80662C78.1482 8.61141 77.3378 7.68968 76.2844 7.04142C75.2513 6.37292 74.0358 6.03866 72.638 6.03866C71.2605 6.03866 70.045 6.37292 68.9916 7.04142C67.9585 7.68968 67.1583 8.60128 66.5911 9.77623C66.0238 10.9512 65.7402 12.3388 65.7402 13.9392C65.7402 15.5598 66.0238 16.9779 66.5911 18.1934C67.1785 19.4088 67.9888 20.361 69.022 21.0497C70.0754 21.7385 71.2807 22.0829 72.638 22.0829ZM96.3345 25.3039C94.0251 25.3039 92.0297 24.8481 90.3483 23.9365C88.6669 23.0046 87.3704 21.7081 86.4588 20.047C85.5472 18.3656 85.0914 16.4005 85.0914 14.1519C85.0914 11.9033 85.5472 9.9383 86.4588 8.2569C87.3704 6.55524 88.6365 5.22835 90.2571 4.27623C91.8777 3.30385 93.7617 2.81767 95.9091 2.81767C97.6512 2.81767 99.2111 3.14179 100.589 3.79004C101.986 4.41803 103.111 5.28912 103.962 6.4033C104.833 7.49723 105.359 8.77347 105.542 10.232H101.591C101.389 8.93553 100.781 7.91251 99.7682 7.16297C98.7553 6.41343 97.4892 6.03866 95.9698 6.03866C94.5923 6.03866 93.387 6.36279 92.3538 7.01104C91.3207 7.65929 90.5205 8.58102 89.9533 9.77623C89.386 10.9714 89.1024 12.3996 89.1024 14.0608C89.1024 15.7624 89.386 17.221 89.9533 18.4365C90.5407 19.6317 91.3814 20.5433 92.4754 21.1713C93.5895 21.7993 94.9468 22.1133 96.5472 22.1133C97.7829 22.1133 98.8464 21.9613 99.7378 21.6575C100.629 21.3333 101.348 20.8573 101.895 20.2293L105.694 21.7182C104.539 22.8932 103.202 23.7845 101.683 24.3923C100.163 25 98.3805 25.3039 96.3345 25.3039ZM101.743 21.7182V15.337L102.685 16.279H96.5168V13.1795H105.694V21.7182H101.743ZM118.325 25.3039C116.744 25.3039 115.286 25.0304 113.949 24.4834C112.612 23.9365 111.447 23.1565 110.454 22.1436C109.482 21.1308 108.722 19.9355 108.175 18.558C107.649 17.1602 107.385 15.6307 107.385 13.9696C107.385 11.7615 107.851 9.82688 108.783 8.16574C109.715 6.48433 111.001 5.1777 112.642 4.24584C114.303 3.29372 116.187 2.81767 118.294 2.81767C120.441 2.81767 122.336 3.29372 123.976 4.24584C125.638 5.1777 126.934 6.48433 127.866 8.16574C128.798 9.84714 129.264 11.7919 129.264 14C129.264 15.6611 128.99 17.1805 128.443 18.558C127.917 19.9355 127.157 21.1308 126.164 22.1436C125.192 23.1565 124.037 23.9365 122.7 24.4834C121.363 25.0304 119.905 25.3039 118.325 25.3039ZM118.294 22.0829C119.672 22.0829 120.877 21.7385 121.91 21.0497C122.964 20.361 123.784 19.4088 124.371 18.1934C124.959 16.9576 125.253 15.5396 125.253 13.9392C125.253 12.3591 124.959 10.9816 124.371 9.80662C123.804 8.61141 122.994 7.68968 121.941 7.04142C120.907 6.37292 119.692 6.03866 118.294 6.03866C116.917 6.03866 115.701 6.37292 114.648 7.04142C113.615 7.68968 112.814 8.60128 112.247 9.77623C111.68 10.9512 111.396 12.3388 111.396 13.9392C111.396 15.5598 111.68 16.9779 112.247 18.1934C112.835 19.4088 113.645 20.361 114.678 21.0497C115.732 21.7385 116.937 22.0829 118.294 22.0829ZM131.359 25V3.12153H141.174C142.774 3.12153 144.141 3.39501 145.276 3.94198C146.431 4.48894 147.312 5.25874 147.92 6.25137C148.548 7.244 148.862 8.41896 148.862 9.77623C148.862 11.1133 148.548 12.2882 147.92 13.3011C147.292 14.314 146.41 15.104 145.276 15.6713C144.141 16.2182 142.774 16.4917 141.174 16.4917H134.428V13.3923H140.991C142.247 13.3923 143.21 13.0681 143.878 12.4199C144.567 11.7716 144.911 10.8904 144.911 9.77623C144.911 8.68231 144.567 7.82135 143.878 7.19336C143.21 6.56537 142.247 6.25137 140.991 6.25137H135.309V25H131.359ZM150.715 25V3.12153H154.665V25H150.715ZM157.519 25V3.12153H161.469V25H157.519ZM159.403 25V21.8702H172.226V25H159.403ZM182.841 25.3039C181.26 25.3039 179.802 25.0304 178.465 24.4834C177.128 23.9365 175.963 23.1565 174.97 22.1436C173.998 21.1308 173.238 19.9355 172.691 18.558C172.165 17.1602 171.901 15.6307 171.901 13.9696C171.901 11.7615 172.367 9.82688 173.299 8.16574C174.231 6.48433 175.517 5.1777 177.158 4.24584C178.819 3.29372 180.703 2.81767 182.81 2.81767C184.958 2.81767 186.852 3.29372 188.493 4.24584C190.154 5.1777 191.45 6.48433 192.382 8.16574C193.314 9.84714 193.78 11.7919 193.78 14C193.78 15.6611 193.506 17.1805 192.959 18.558C192.433 19.9355 191.673 21.1308 190.68 22.1436C189.708 23.1565 188.553 23.9365 187.216 24.4834C185.879 25.0304 184.421 25.3039 182.841 25.3039ZM182.81 22.0829C184.188 22.0829 185.393 21.7385 186.426 21.0497C187.48 20.361 188.3 19.4088 188.888 18.1934C189.475 16.9576 189.769 15.5396 189.769 13.9392C189.769 12.3591 189.475 10.9816 188.888 9.80662C188.32 8.61141 187.51 7.68968 186.457 7.04142C185.423 6.37292 184.208 6.03866 182.81 6.03866C181.433 6.03866 180.217 6.37292 179.164 7.04142C178.131 7.68968 177.33 8.60128 176.763 9.77623C176.196 10.9512 175.912 12.3388 175.912 13.9392C175.912 15.5598 176.196 16.9779 176.763 18.1934C177.351 19.4088 178.161 20.361 179.194 21.0497C180.248 21.7385 181.453 22.0829 182.81 22.0829ZM200.472 25V6.25137H193.21V3.12153H211.685V6.25137H204.422V25H200.472Z" fill="#585D61"/>
<defs>
<clipPath id="clip0_1998_1132">
<rect width="37" height="28" fill="white"/>
</clipPath>
</defs>
</svg>
