<svg width="254" height="41" viewBox="0 0 254 41" fill="none" xmlns="http://www.w3.org/2000/svg">
<path d="M39.2717 14.3319C39.2717 14.7326 39.1125 15.1169 38.8292 15.4002C38.5459 15.6835 38.1617 15.8427 37.761 15.8427H34.7395V18.8641C34.7395 19.2648 34.5804 19.6491 34.297 19.9324C34.0137 20.2157 33.6295 20.3749 33.2288 20.3749C32.8281 20.3749 32.4439 20.2157 32.1605 19.9324C31.8772 19.6491 31.7181 19.2648 31.7181 18.8641V15.8427H28.6966C28.2959 15.8427 27.9117 15.6835 27.6283 15.4002C27.345 15.1169 27.1859 14.7326 27.1859 14.3319C27.1859 13.9313 27.345 13.547 27.6283 13.2637C27.9117 12.9804 28.2959 12.8212 28.6966 12.8212H31.7181V9.79974C31.7181 9.39907 31.8772 9.01481 32.1605 8.73149C32.4439 8.44817 32.8281 8.28901 33.2288 8.28901C33.6295 8.28901 34.0137 8.44817 34.297 8.73149C34.5804 9.01481 34.7395 9.39907 34.7395 9.79974V12.8212H37.761C38.1617 12.8212 38.5459 12.9804 38.8292 13.2637C39.1125 13.547 39.2717 13.9313 39.2717 14.3319ZM21.1429 6.77828H22.6537V8.28901C22.6537 8.68968 22.8128 9.07394 23.0961 9.35726C23.3795 9.64057 23.7637 9.79974 24.1644 9.79974C24.5651 9.79974 24.9493 9.64057 25.2327 9.35726C25.516 9.07394 25.6751 8.68968 25.6751 8.28901V6.77828H27.1859C27.5865 6.77828 27.9708 6.61911 28.2541 6.33579C28.5374 6.05248 28.6966 5.66822 28.6966 5.26755C28.6966 4.86687 28.5374 4.48261 28.2541 4.1993C27.9708 3.91598 27.5865 3.75681 27.1859 3.75681H25.6751V2.24608C25.6751 1.84541 25.516 1.46115 25.2327 1.17783C24.9493 0.894517 24.5651 0.735352 24.1644 0.735352C23.7637 0.735352 23.3795 0.894517 23.0961 1.17783C22.8128 1.46115 22.6537 1.84541 22.6537 2.24608V3.75681H21.1429C20.7423 3.75681 20.358 3.91598 20.0747 4.1993C19.7914 4.48261 19.6322 4.86687 19.6322 5.26755C19.6322 5.66822 19.7914 6.05248 20.0747 6.33579C20.358 6.61911 20.7423 6.77828 21.1429 6.77828ZM33.4441 24.5917C30.7645 25.1211 27.9957 24.9824 25.3825 24.1878C22.7692 23.3933 20.3918 21.9673 18.4604 20.0359C16.529 18.1045 15.1031 15.7272 14.3085 13.1139C13.5139 10.5006 13.3752 7.73187 13.9046 5.05227C13.9565 4.7893 13.9375 4.51727 13.8495 4.26409C13.7615 4.01091 13.6078 3.78569 13.404 3.61154C13.2003 3.4374 12.9539 3.32059 12.6901 3.27311C12.4263 3.22563 12.1546 3.24919 11.9029 3.34136C9.04223 4.38741 6.49122 6.13739 4.48546 8.4297C2.47969 10.722 1.08384 13.4828 0.426799 16.457C-0.230243 19.4312 -0.127292 22.5231 0.726144 25.447C1.57958 28.371 3.15599 31.0327 5.3098 33.1865C7.4636 35.3403 10.1254 36.9168 13.0493 37.7702C15.9733 38.6236 19.0651 38.7266 22.0393 38.0695C25.0136 37.4125 27.7743 36.0166 30.0666 34.0109C32.3589 32.0051 34.1089 29.4541 35.155 26.5934C35.2471 26.3417 35.2707 26.07 35.2232 25.8063C35.1757 25.5425 35.0589 25.2961 34.8848 25.0923C34.7106 24.8886 34.4854 24.7348 34.2322 24.6468C33.9791 24.5589 33.707 24.5398 33.4441 24.5917Z" fill="#165CFD"/>
<path d="M68.1965 33.2219C66.452 33.2219 64.8354 32.9079 63.3468 32.2799C61.8581 31.6286 60.5672 30.7331 59.474 29.5934C58.404 28.4304 57.5667 27.058 56.9619 25.4764C56.3571 23.8947 56.0548 22.1618 56.0548 20.2778C56.0548 18.3937 56.3455 16.6725 56.927 15.114C57.5318 13.5324 58.3691 12.1716 59.4391 11.0319C60.5323 9.8689 61.8232 8.9734 63.3119 8.34538C64.8005 7.71736 66.4171 7.40335 68.1616 7.40335C70.1154 7.40335 71.8716 7.79877 73.43 8.58961C74.9884 9.35719 76.2561 10.4504 77.233 11.8693C78.2332 13.2881 78.8496 14.9396 79.0822 16.8236H75.4536C75.1512 14.8465 74.3487 13.3114 73.0462 12.2182C71.7669 11.1017 70.1503 10.5434 68.1965 10.5434C66.545 10.5434 65.0796 10.9505 63.8003 11.7646C62.5443 12.5554 61.5674 13.6835 60.8696 15.1489C60.1718 16.591 59.8229 18.3007 59.8229 20.2778C59.8229 22.2316 60.1718 23.9528 60.8696 25.4415C61.5906 26.9069 62.5792 28.0466 63.8352 28.8607C65.0913 29.6748 66.545 30.0818 68.1965 30.0818C70.1503 30.0818 71.7785 29.5352 73.0811 28.442C74.4069 27.3255 75.2094 25.7787 75.4885 23.8016H79.1519C78.8961 25.709 78.2681 27.3721 77.2679 28.7909C76.2677 30.1865 74.9884 31.2797 73.43 32.0706C71.8948 32.8382 70.1503 33.2219 68.1965 33.2219Z" fill="white"/>
<path d="M81.6689 32.873V7.75225H85.2975V32.873H81.6689Z" fill="white"/>
<path d="M96.6716 33.2219C94.8806 33.2219 93.2989 32.8265 91.9266 32.0357C90.5775 31.2448 89.5192 30.1516 88.7516 28.756C87.984 27.3604 87.6002 25.7555 87.6002 23.9412C87.6002 22.1037 87.9724 20.4987 88.7167 19.1264C89.4843 17.7308 90.5542 16.6492 91.9266 15.8816C93.2989 15.114 94.869 14.7302 96.6367 14.7302C98.358 14.7302 99.8466 15.1024 101.103 15.8467C102.382 16.5678 103.359 17.5796 104.033 18.8822C104.731 20.1847 105.08 21.7315 105.08 23.5225C105.08 23.8016 105.068 24.0691 105.045 24.325C105.045 24.5576 105.022 24.8018 104.975 25.0577H90.0425V22.3363H102.428L101.521 23.4179C101.521 21.5105 101.091 20.0568 100.23 19.0566C99.3698 18.0564 98.1719 17.5563 96.6367 17.5563C94.9853 17.5563 93.6711 18.1262 92.6942 19.2659C91.7405 20.3824 91.2637 21.9408 91.2637 23.9412C91.2637 25.9648 91.7405 27.5465 92.6942 28.6862C93.6711 29.826 95.0202 30.3959 96.7414 30.3959C97.7881 30.3959 98.6952 30.1865 99.4628 29.7678C100.23 29.3259 100.8 28.6862 101.172 27.8489H104.592C104.01 29.5236 103.022 30.8378 101.626 31.7915C100.254 32.7451 98.6022 33.2219 96.6716 33.2219Z" fill="white"/>
<path d="M118.217 32.873C118.101 32.4311 118.019 31.9426 117.973 31.4077C117.95 30.8727 117.938 30.2214 117.938 29.4538H117.763V20.9756C117.763 19.8358 117.473 18.9868 116.891 18.4286C116.333 17.8471 115.437 17.5563 114.205 17.5563C113.018 17.5563 112.065 17.7889 111.344 18.2541C110.646 18.7193 110.239 19.3822 110.123 20.2429H106.668C106.831 18.5681 107.587 17.2307 108.936 16.2305C110.285 15.2303 112.088 14.7302 114.344 14.7302C116.67 14.7302 118.415 15.2769 119.578 16.3701C120.741 17.44 121.322 19.0217 121.322 21.1151V29.4538C121.322 29.9888 121.357 30.5354 121.427 31.0937C121.497 31.6519 121.601 32.245 121.741 32.873H118.217ZM112.076 33.2219C110.262 33.2219 108.82 32.78 107.75 31.8961C106.68 30.989 106.145 29.7678 106.145 28.2327C106.145 26.651 106.703 25.4066 107.82 24.4994C108.96 23.569 110.588 22.941 112.704 22.6154L118.566 21.6734V24.2203L113.263 25.0577C112.076 25.2438 111.181 25.5578 110.576 25.9997C109.995 26.4417 109.704 27.0813 109.704 27.9187C109.704 28.7328 109.971 29.3492 110.506 29.7678C111.065 30.1633 111.867 30.361 112.914 30.361C114.309 30.361 115.461 30.0237 116.368 29.3492C117.298 28.6746 117.763 27.8256 117.763 26.8022L118.217 29.384C117.798 30.6168 117.054 31.5705 115.984 32.245C114.914 32.8963 113.612 33.2219 112.076 33.2219Z" fill="white"/>
<path d="M124.843 32.873V15.0791H128.297V19.2659H128.471V32.873H124.843ZM137.473 32.873V21.4291C137.473 20.1963 137.159 19.2776 136.531 18.6728C135.926 18.0681 135.019 17.7657 133.809 17.7657C132.763 17.7657 131.832 17.9983 131.018 18.4635C130.227 18.9287 129.599 19.5683 129.134 20.3824C128.692 21.1965 128.471 22.1618 128.471 23.2783L128.018 19.0217C128.599 17.6959 129.495 16.6492 130.704 15.8816C131.914 15.114 133.321 14.7302 134.926 14.7302C136.833 14.7302 138.333 15.2652 139.427 16.3352C140.52 17.4051 141.066 18.824 141.066 20.5918V32.873H137.473Z" fill="white"/>
<path d="M150.193 33.2219C149.007 33.2219 147.96 32.9777 147.053 32.4893C146.146 31.9775 145.436 31.2797 144.925 30.3959C144.436 29.512 144.192 28.5002 144.192 27.3604V15.0791H147.821V26.5231C147.821 27.7558 148.123 28.6746 148.728 29.2794C149.333 29.8841 150.193 30.1865 151.31 30.1865C152.31 30.1865 153.194 29.9539 153.961 29.4887C154.752 29.0235 155.369 28.3839 155.81 27.5698C156.276 26.7324 156.508 25.7671 156.508 24.6739L156.962 28.9305C156.38 30.233 155.485 31.2797 154.275 32.0706C153.089 32.8382 151.728 33.2219 150.193 33.2219ZM156.648 32.873V28.6862H156.508V15.0791H160.102V32.873H156.648Z" fill="white"/>
<path d="M173.28 33.1871C171.605 33.1871 170.21 32.7916 169.093 32.0008C168 31.1867 167.279 30.0586 166.93 28.6165L167.418 28.5467V40.0255H163.79V15.0791H167.244V19.1613L166.895 19.0566C167.267 17.7075 168.058 16.6492 169.268 15.8816C170.477 15.114 171.896 14.7302 173.524 14.7302C175.129 14.7302 176.513 15.114 177.676 15.8816C178.862 16.6492 179.77 17.7192 180.398 19.0915C181.049 20.4638 181.374 22.0688 181.374 23.9063C181.374 25.7671 181.037 27.3953 180.363 28.7909C179.688 30.1865 178.746 31.2681 177.537 32.0357C176.327 32.8033 174.908 33.1871 173.28 33.1871ZM172.512 30.1865C174.094 30.1865 175.35 29.6283 176.281 28.5118C177.211 27.3953 177.676 25.8602 177.676 23.9063C177.676 21.9757 177.211 20.4755 176.281 19.4055C175.35 18.3123 174.082 17.7657 172.478 17.7657C170.896 17.7657 169.628 18.3239 168.674 19.4404C167.744 20.5336 167.279 22.0571 167.279 24.011C167.279 25.9183 167.744 27.4302 168.674 28.5467C169.628 29.6399 170.907 30.1865 172.512 30.1865Z" fill="white"/>
<path d="M183.827 32.873V7.75225H187.525V32.873H183.827ZM185.641 22.4409V19.4055H199.457V22.4409H185.641ZM185.641 10.7877V7.75225H200.399V10.7877H185.641Z" fill="white"/>
<path d="M203.248 32.873V7.75225H206.877V32.873H203.248Z" fill="white"/>
<path d="M218.321 33.2219C216.507 33.2219 214.913 32.8265 213.541 32.0357C212.169 31.2216 211.099 30.1167 210.331 28.7211C209.563 27.3023 209.18 25.6973 209.18 23.9063C209.18 22.092 209.563 20.4987 210.331 19.1264C211.122 17.754 212.192 16.6841 213.541 15.9165C214.913 15.1257 216.507 14.7302 218.321 14.7302C220.158 14.7302 221.763 15.1257 223.136 15.9165C224.508 16.6841 225.566 17.754 226.311 19.1264C227.078 20.4987 227.462 22.092 227.462 23.9063C227.462 25.6973 227.078 27.3023 226.311 28.7211C225.566 30.1167 224.508 31.2216 223.136 32.0357C221.763 32.8265 220.158 33.2219 218.321 33.2219ZM218.321 30.2563C219.414 30.2563 220.356 29.9888 221.147 29.4538C221.961 28.9188 222.601 28.1745 223.066 27.2209C223.531 26.2672 223.764 25.1507 223.764 23.8714C223.764 21.9641 223.252 20.4638 222.228 19.3706C221.228 18.2541 219.926 17.6959 218.321 17.6959C216.739 17.6959 215.437 18.2541 214.413 19.3706C213.413 20.4871 212.913 21.9874 212.913 23.8714C212.913 25.1507 213.134 26.2672 213.576 27.2209C214.041 28.1745 214.681 28.9188 215.495 29.4538C216.332 29.9888 217.274 30.2563 218.321 30.2563Z" fill="white"/>
<path d="M233.082 32.873L227.639 15.0791H231.372L235.071 29.384H234.547L239.048 15.0791H242.188L246.689 29.384H246.201L249.864 15.0791H253.423L247.98 32.873H244.805L240.304 18.8124H240.828L236.257 32.873H233.082Z" fill="white"/>
</svg>
