<svg width="181" height="39" viewBox="0 0 181 39" fill="none" xmlns="http://www.w3.org/2000/svg">
<path d="M27.7166 18.8457C29.0884 17.6969 29.9608 15.9714 29.9608 14.0421C29.9608 12.1128 29.0884 10.3873 27.7166 9.23851C27.8738 9.16237 28.0251 9.07975 28.1692 8.9902C29.0792 8.42441 30.1532 8.09766 31.3035 8.09766C34.5866 8.09766 37.248 10.7591 37.248 14.0421C37.248 17.3251 34.5866 19.9865 31.3035 19.9865C30.1532 19.9865 29.0792 19.6598 28.1692 19.094C28.0251 19.0045 27.8738 18.9219 27.7166 18.8457Z" fill="#585D61"/>
<path d="M26.0651 14.9766C26.6788 13.2958 26.5715 11.3652 25.6069 9.69443C24.6422 8.02363 23.0239 6.96547 21.2615 6.6565C21.3596 6.51199 21.4492 6.36477 21.5292 6.21515C22.0344 5.27021 22.8012 4.45021 23.7974 3.87503C26.6406 2.23352 30.2763 3.20767 31.9177 6.05085C33.5592 8.89404 32.5851 12.5296 29.7419 14.1711C28.7457 14.7463 27.6521 15.0003 26.5812 14.9654C26.4117 14.9598 26.2393 14.9639 26.0651 14.9766Z" fill="#585D61"/>
<path d="M22.7017 12.4536C22.3927 10.6912 21.3345 9.0729 19.6637 8.10826C17.9929 7.14361 16.0624 7.03638 14.3816 7.65002C14.3943 7.47583 14.3984 7.30348 14.3928 7.13392C14.3579 6.06298 14.6119 4.96946 15.1871 3.97321C16.8286 1.13003 20.4642 0.155883 23.3074 1.7974C26.1505 3.43891 27.1247 7.07448 25.4832 9.9177C24.908 10.9139 24.088 11.6807 23.143 12.1859C22.9935 12.2659 22.8463 12.3555 22.7017 12.4536Z" fill="#585D61"/>
<path d="M18.5229 11.9484C17.3741 10.5766 15.6486 9.70421 13.7192 9.70421C11.7899 9.70421 10.0644 10.5766 8.91562 11.9484C8.83953 11.7912 8.75688 11.6399 8.66731 11.4958C8.10154 10.5858 7.77478 9.51183 7.77478 8.36146C7.77478 5.07842 10.4362 2.41699 13.7192 2.41699C17.0023 2.41699 19.6637 5.07842 19.6637 8.36146C19.6637 9.51183 19.3369 10.5858 18.7712 11.4958C18.6816 11.6399 18.5989 11.7912 18.5229 11.9484Z" fill="#585D61"/>
<path d="M14.6577 13.6012C12.9769 12.9876 11.0463 13.0948 9.37548 14.0594C7.70466 15.0241 6.64651 16.6424 6.33755 18.4048C6.19304 18.3067 6.04581 18.217 5.89619 18.137C4.95125 17.6319 4.13125 16.8651 3.55607 15.8689C1.91455 13.0256 2.88869 9.39011 5.73189 7.74858C8.57508 6.10705 12.2106 7.0812 13.8522 9.92442C14.4274 10.9206 14.6814 12.0142 14.6464 13.0851C14.6409 13.2546 14.6449 13.427 14.6577 13.6012Z" fill="#585D61"/>
<path d="M12.1327 16.9637C10.3702 17.2726 8.7519 18.3308 7.78726 20.0016C6.82262 21.6724 6.71538 23.603 7.32903 25.2838C7.15482 25.271 6.98244 25.267 6.81287 25.2724C5.74194 25.3075 4.64841 25.0535 3.65218 24.4783C0.808986 22.8367 -0.165163 19.2012 1.47635 16.358C3.11787 13.5148 6.75344 12.5406 9.59663 14.1822C10.5929 14.7574 11.3596 15.5773 11.8648 16.5222C11.9448 16.6719 12.0345 16.8191 12.1327 16.9637Z" fill="#585D61"/>
<path d="M11.6242 21.1414C10.2523 22.2902 9.37994 24.0157 9.37994 25.9449C9.37994 27.8743 10.2523 29.5998 11.6242 30.7486C11.467 30.8246 11.3157 30.9074 11.1716 30.9969C10.2616 31.5626 9.18758 31.8894 8.03723 31.8894C4.7542 31.8894 2.09277 29.228 2.09277 25.9449C2.09277 22.6619 4.7542 20.0005 8.03723 20.0005C9.18758 20.0005 10.2616 20.3272 11.1716 20.8931C11.3157 20.9826 11.467 21.0652 11.6242 21.1414Z" fill="#585D61"/>
<path d="M13.2789 25.0098C12.6651 26.6906 12.7724 28.6211 13.737 30.2919C14.7017 31.9628 16.32 33.0209 18.0824 33.3298C17.9843 33.4744 17.8947 33.6217 17.8147 33.7713C17.3095 34.7162 16.5427 35.5362 15.5465 36.1113C12.7033 37.7529 9.0677 36.7787 7.42619 33.9356C5.78466 31.0923 6.75882 27.4568 9.602 25.8152C10.5982 25.2401 11.6918 24.986 12.7627 25.0211C12.9322 25.0266 13.1046 25.0225 13.2789 25.0098Z" fill="#585D61"/>
<path d="M16.643 27.5337C16.952 29.2961 18.0102 30.9144 19.681 31.879C21.3518 32.8436 23.2824 32.9509 24.9632 32.3372C24.9505 32.5115 24.9464 32.6838 24.9519 32.8534C24.987 33.9243 24.7329 35.0179 24.1578 36.0141C22.5162 38.8573 18.8807 39.8314 16.0374 38.1898C13.1942 36.5484 12.2201 32.9129 13.8617 30.0696C14.4368 29.0734 15.2568 28.3066 16.2017 27.8014C16.3513 27.7215 16.4986 27.6317 16.643 27.5337Z" fill="#585D61"/>
<path d="M20.8206 28.041C21.9694 29.4129 23.6949 30.2852 25.6243 30.2852C27.5536 30.2852 29.2791 29.4129 30.4279 28.041C30.504 28.1982 30.5866 28.3495 30.6762 28.4936C31.242 29.4035 31.5687 30.4776 31.5687 31.628C31.5687 34.911 28.9073 37.5724 25.6243 37.5724C22.3412 37.5724 19.6798 34.911 19.6798 31.628C19.6798 30.4776 20.0066 29.4035 20.5723 28.4936C20.6619 28.3495 20.7446 28.1982 20.8206 28.041Z" fill="#585D61"/>
<path d="M24.689 26.3895C26.3698 27.0031 28.3003 26.8959 29.9711 25.9313C31.6419 24.9667 32.7001 23.3484 33.009 21.5859C33.1535 21.6839 33.3008 21.7737 33.4504 21.8537C34.3954 22.3589 35.2154 23.1257 35.7905 24.1219C37.4321 26.9651 36.4579 30.6006 33.6148 32.2422C30.7715 33.8837 27.136 32.9096 25.4944 30.0663C24.9193 29.0701 24.6652 27.9766 24.7002 26.9057C24.7058 26.7361 24.7017 26.5637 24.689 26.3895Z" fill="#585D61"/>
<path d="M31.562 19.9807C31.5608 19.9828 31.5596 19.9849 31.5584 19.987C30.5939 21.6578 28.9756 22.716 27.2131 23.0249C27.3111 23.1695 27.4009 23.3168 27.4809 23.4663C27.9861 24.4113 28.7529 25.2313 29.7491 25.8064C32.5923 27.448 36.2278 26.4738 37.8694 23.6307C39.2766 21.1931 38.7614 18.1731 36.7942 16.3267C35.93 18.4007 33.9245 19.8801 31.562 19.9807Z" fill="#585D61"/>
<path d="M49.1823 27V10.0673H52.1761V24.2697H60.9897V27H49.1823ZM68.7658 27.1677C67.4725 27.1677 66.3548 26.9042 65.4128 26.3773C64.4867 25.8504 63.7682 25.1 63.2573 24.126C62.7623 23.152 62.5148 22.0104 62.5148 20.7011C62.5148 19.3759 62.7703 18.2343 63.2812 17.2763C63.7921 16.3023 64.5106 15.5439 65.4367 15.001C66.3628 14.4582 67.4725 14.1867 68.7658 14.1867C70.0431 14.1867 71.1448 14.4582 72.0709 15.001C72.9969 15.5439 73.7074 16.3103 74.2024 17.3002C74.6974 18.2742 74.9449 19.4238 74.9449 20.749C74.9449 22.0423 74.6974 23.176 74.2024 24.1499C73.7234 25.1079 73.0209 25.8504 72.0948 26.3773C71.1687 26.9042 70.0591 27.1677 68.7658 27.1677ZM68.7418 24.5092C69.5401 24.5092 70.1788 24.3336 70.6578 23.9823C71.1528 23.631 71.512 23.168 71.7356 22.5932C71.9591 22.0184 72.0709 21.3957 72.0709 20.7251C72.0709 20.0545 71.9591 19.4238 71.7356 18.833C71.512 18.2423 71.1528 17.7713 70.6578 17.42C70.1788 17.0528 69.5401 16.8691 68.7418 16.8691C67.9435 16.8691 67.2968 17.0528 66.8019 17.42C66.3069 17.7713 65.9476 18.2423 65.7241 18.833C65.5006 19.4078 65.3888 20.0385 65.3888 20.7251C65.3888 21.3957 65.5006 22.0264 65.7241 22.6171C65.9636 23.1919 66.3229 23.655 66.8019 24.0062C67.2968 24.3415 67.9435 24.5092 68.7418 24.5092ZM83.152 32.772C82.226 32.772 81.3558 32.6203 80.5415 32.3169C79.7432 32.0295 79.0646 31.5665 78.5057 30.9278C77.9629 30.3051 77.5956 29.4988 77.404 28.5089H80.3978C80.4936 28.8921 80.6852 29.2034 80.9726 29.4429C81.26 29.6824 81.5953 29.8501 81.9785 29.9459C82.3777 30.0576 82.7848 30.1135 83.1999 30.1135C83.9823 30.1135 84.597 29.9538 85.0441 29.6345C85.5071 29.3152 85.8344 28.8761 86.026 28.3173C86.2176 27.7744 86.3134 27.1756 86.3134 26.521V25.3235C86.026 25.7865 85.6588 26.1538 85.2117 26.4252C84.7806 26.6966 84.3176 26.8882 83.8226 27C83.3436 27.0958 82.8646 27.1437 82.3856 27.1437C81.0764 27.1437 80.0066 26.8563 79.1763 26.2815C78.362 25.7067 77.7633 24.9403 77.3801 23.9823C76.9969 23.0083 76.8053 21.9386 76.8053 20.773C76.8053 19.5595 77.0129 18.4578 77.428 17.4679C77.8591 16.462 78.4978 15.6637 79.344 15.0729C80.2062 14.4821 81.2839 14.1867 82.5772 14.1867C83.3277 14.1867 84.0302 14.3225 84.6848 14.5939C85.3554 14.8494 85.9143 15.2405 86.3613 15.7674L86.5529 14.3783H89.2593V25.8983C89.2593 27.3193 89.0517 28.5408 88.6366 29.5627C88.2374 30.6005 87.5908 31.3908 86.6966 31.9337C85.8025 32.4925 84.621 32.772 83.152 32.772ZM82.9844 24.5571C83.7348 24.5571 84.3575 24.3815 84.8525 24.0302C85.3475 23.663 85.7227 23.184 85.9781 22.5932C86.2336 21.9865 86.3613 21.3318 86.3613 20.6293C86.3613 19.9108 86.2336 19.2641 85.9781 18.6893C85.7386 18.1145 85.3714 17.6595 84.8764 17.3242C84.3974 16.9889 83.7747 16.8212 83.0083 16.8212C82.194 16.8212 81.5474 17.0049 81.0684 17.3721C80.5894 17.7393 80.2381 18.2263 80.0146 18.833C79.807 19.4238 79.7032 20.0545 79.7032 20.7251C79.7032 21.4276 79.815 22.0743 80.0385 22.665C80.2621 23.2398 80.6133 23.7029 81.0923 24.0541C81.5713 24.3894 82.202 24.5571 82.9844 24.5571ZM97.8613 27.1677C96.568 27.1677 95.4503 26.9042 94.5083 26.3773C93.5822 25.8504 92.8637 25.1 92.3528 24.126C91.8578 23.152 91.6103 22.0104 91.6103 20.7011C91.6103 19.3759 91.8658 18.2343 92.3767 17.2763C92.8877 16.3023 93.6062 15.5439 94.5322 15.001C95.4583 14.4582 96.568 14.1867 97.8613 14.1867C99.1386 14.1867 100.24 14.4582 101.166 15.001C102.092 15.5439 102.803 16.3103 103.298 17.3002C103.793 18.2742 104.04 19.4238 104.04 20.749C104.04 22.0423 103.793 23.176 103.298 24.1499C102.819 25.1079 102.116 25.8504 101.19 26.3773C100.264 26.9042 99.1546 27.1677 97.8613 27.1677ZM97.8373 24.5092C98.6357 24.5092 99.2743 24.3336 99.7533 23.9823C100.248 23.631 100.608 23.168 100.831 22.5932C101.055 22.0184 101.166 21.3957 101.166 20.7251C101.166 20.0545 101.055 19.4238 100.831 18.833C100.608 18.2423 100.248 17.7713 99.7533 17.42C99.2743 17.0528 98.6357 16.8691 97.8373 16.8691C97.039 16.8691 96.3923 17.0528 95.8974 17.42C95.4024 17.7713 95.0432 18.2423 94.8196 18.833C94.5961 19.4078 94.4843 20.0385 94.4843 20.7251C94.4843 21.3957 94.5961 22.0264 94.8196 22.6171C95.0591 23.1919 95.4184 23.655 95.8974 24.0062C96.3923 24.3415 97.039 24.5092 97.8373 24.5092ZM113.525 27V10.0673H116.518V27H113.525ZM119.828 31.6463V14.3783H122.559L122.702 16.0788C123.197 15.4242 123.788 14.9452 124.475 14.6418C125.161 14.3384 125.92 14.1867 126.75 14.1867C127.995 14.1867 129.025 14.4741 129.839 15.0489C130.654 15.6237 131.26 16.3981 131.66 17.3721C132.059 18.3461 132.258 19.4478 132.258 20.6772C132.258 21.9066 132.051 23.0163 131.636 24.0062C131.221 24.9802 130.59 25.7546 129.744 26.3294C128.913 26.8882 127.868 27.1677 126.606 27.1677C126.015 27.1677 125.473 27.1038 124.978 26.976C124.499 26.8483 124.067 26.6647 123.684 26.4252C123.317 26.1857 123.006 25.9143 122.75 25.6109V31.6463H119.828ZM126.151 24.5331C126.965 24.5331 127.604 24.3575 128.067 24.0062C128.53 23.639 128.865 23.168 129.073 22.5932C129.281 22.0024 129.384 21.3797 129.384 20.7251C129.384 20.0385 129.273 19.3999 129.049 18.8091C128.841 18.2183 128.498 17.7393 128.019 17.3721C127.54 17.0049 126.902 16.8212 126.103 16.8212C125.369 16.8212 124.746 17.0049 124.235 17.3721C123.74 17.7234 123.365 18.1944 123.109 18.7851C122.854 19.3759 122.726 20.0146 122.726 20.7011C122.726 21.4037 122.846 22.0503 123.085 22.6411C123.325 23.2159 123.7 23.6789 124.211 24.0302C124.722 24.3655 125.369 24.5331 126.151 24.5331ZM139.448 27.1677C138.841 27.1677 138.234 27.1038 137.628 26.976C137.037 26.8483 136.478 26.6407 135.951 26.3533C135.424 26.05 134.985 25.6428 134.634 25.1319C134.283 24.621 134.051 23.9823 133.939 23.2159H136.885C137.013 23.5672 137.212 23.8546 137.484 24.0781C137.771 24.2857 138.099 24.4453 138.466 24.5571C138.849 24.6529 139.224 24.7008 139.592 24.7008C139.815 24.7008 140.055 24.6848 140.31 24.6529C140.581 24.621 140.829 24.5571 141.052 24.4613C141.292 24.3655 141.484 24.2298 141.627 24.0541C141.771 23.8625 141.843 23.6151 141.843 23.3117C141.843 23.0243 141.763 22.8008 141.603 22.6411C141.444 22.4655 141.228 22.3297 140.957 22.2339C140.685 22.1222 140.358 22.0344 139.975 21.9705C139.288 21.8268 138.554 21.6751 137.771 21.5154C136.989 21.3398 136.31 21.0684 135.736 20.7011C135.496 20.5574 135.289 20.3898 135.113 20.1982C134.937 20.0066 134.786 19.799 134.658 19.5755C134.546 19.336 134.458 19.0805 134.394 18.8091C134.346 18.5377 134.323 18.2423 134.323 17.9229C134.323 17.2523 134.458 16.6855 134.73 16.2225C135.017 15.7435 135.392 15.3603 135.855 15.0729C136.334 14.7695 136.877 14.546 137.484 14.4023C138.091 14.2586 138.713 14.1867 139.352 14.1867C140.214 14.1867 140.997 14.3225 141.699 14.5939C142.402 14.8653 142.984 15.2805 143.447 15.8393C143.926 16.3981 144.214 17.1086 144.31 17.9708H141.531C141.452 17.5717 141.204 17.2523 140.789 17.0128C140.39 16.7733 139.879 16.6536 139.256 16.6536C139.033 16.6536 138.801 16.6775 138.562 16.7254C138.322 16.7574 138.091 16.8212 137.867 16.917C137.66 16.9969 137.484 17.1246 137.34 17.3002C137.212 17.4759 137.149 17.6914 137.149 17.9469C137.149 18.1864 137.205 18.394 137.316 18.5696C137.444 18.7452 137.628 18.8969 137.867 19.0246C138.123 19.1364 138.418 19.2322 138.753 19.312C139.296 19.4238 139.863 19.5356 140.454 19.6473C141.044 19.7591 141.555 19.8709 141.987 19.9826C142.497 20.1263 142.96 20.3339 143.376 20.6053C143.791 20.8608 144.11 21.2041 144.334 21.6352C144.573 22.0503 144.693 22.5852 144.693 23.2398C144.693 24.0062 144.533 24.6449 144.214 25.1558C143.911 25.6668 143.503 26.0659 142.992 26.3533C142.481 26.6407 141.915 26.8483 141.292 26.976C140.669 27.1038 140.055 27.1677 139.448 27.1677ZM152.423 27.1677C150.602 27.1677 149.205 26.6966 148.231 25.7546C147.273 24.8126 146.794 23.3756 146.794 21.4436V14.3783H149.716V21.252C149.716 21.9226 149.804 22.5054 149.98 23.0003C150.171 23.4953 150.467 23.8785 150.866 24.1499C151.281 24.4054 151.8 24.5331 152.423 24.5331C153.093 24.5331 153.62 24.3974 154.003 24.126C154.402 23.8386 154.682 23.4474 154.842 22.9524C155.001 22.4575 155.081 21.8907 155.081 21.252V14.3783H158.003V21.4436C158.003 23.4235 157.508 24.8764 156.518 25.8025C155.544 26.7126 154.179 27.1677 152.423 27.1677ZM160.782 27V14.3783H163.464L163.656 15.8153C163.975 15.3842 164.318 15.0569 164.686 14.8334C165.069 14.5939 165.46 14.4262 165.859 14.3304C166.274 14.2346 166.666 14.1867 167.033 14.1867C167.831 14.1867 168.51 14.3464 169.069 14.6657C169.643 14.9851 170.09 15.4641 170.41 16.1027C170.729 15.6557 171.088 15.2964 171.488 15.025C171.887 14.7376 172.31 14.53 172.757 14.4023C173.204 14.2586 173.675 14.1867 174.17 14.1867C175.144 14.1867 175.926 14.3943 176.517 14.8094C177.108 15.2086 177.539 15.7674 177.81 16.4859C178.082 17.1885 178.217 17.9948 178.217 18.9049V27H175.296V19.8389C175.296 19.5196 175.28 19.1843 175.248 18.833C175.216 18.4818 175.128 18.1545 174.984 17.8511C174.856 17.5477 174.665 17.3002 174.409 17.1086C174.154 16.917 173.795 16.8212 173.332 16.8212C172.869 16.8212 172.485 16.925 172.182 17.1326C171.895 17.3242 171.655 17.5876 171.464 17.9229C171.288 18.2423 171.16 18.6015 171.08 19.0007C171.016 19.3839 170.985 19.7671 170.985 20.1503V27H168.063V19.815C168.063 19.5116 168.039 19.1923 167.991 18.857C167.959 18.5057 167.879 18.1784 167.751 17.875C167.64 17.5557 167.448 17.3002 167.177 17.1086C166.921 16.917 166.562 16.8212 166.099 16.8212C165.428 16.8212 164.917 17.0049 164.566 17.3721C164.231 17.7393 163.999 18.1864 163.871 18.7133C163.76 19.2402 163.704 19.7431 163.704 20.2221V27H160.782Z" fill="#585D61"/>
</svg>
