<svg width="33" height="33" viewBox="0 0 33 33" fill="none" xmlns="http://www.w3.org/2000/svg">
<g clip-path="url(#clip0_6_1962)">
<path d="M8.73828 14.3252V5.3252C8.73828 5.05998 8.84364 4.80563 9.03117 4.61809C9.21871 4.43055 9.47306 4.3252 9.73828 4.3252H23.7383C24.0035 4.3252 24.2579 4.43055 24.4454 4.61809C24.6329 4.80563 24.7383 5.05998 24.7383 5.3252V14.3252" stroke="#165CFD" stroke-width="1.5" stroke-linecap="round" stroke-linejoin="round"/>
<path d="M12.7383 8.3252H14.7383" stroke="#165CFD" stroke-width="1.5" stroke-linecap="round" stroke-linejoin="round"/>
<path d="M27.7383 14.3252C27.7383 17.2426 26.5794 20.0405 24.5165 22.1034C22.4536 24.1663 19.6557 25.3252 16.7383 25.3252C13.8209 25.3252 11.023 24.1663 8.96011 22.1034C6.89721 20.0405 5.73828 17.2426 5.73828 14.3252H27.7383Z" stroke="#165CFD" stroke-width="1.5" stroke-linecap="round" stroke-linejoin="round"/>
<path d="M12.2908 24.3887L11.7483 28.1837C11.7281 28.3255 11.7385 28.47 11.779 28.6074C11.8195 28.7449 11.889 28.872 11.9829 28.9802C12.0768 29.0884 12.1928 29.1752 12.3231 29.2347C12.4535 29.2941 12.595 29.3249 12.7383 29.3249H20.7383C20.8816 29.3249 21.0232 29.2941 21.1535 29.2347C21.2838 29.1752 21.3998 29.0884 21.4937 28.9802C21.5876 28.872 21.6571 28.7449 21.6976 28.6074C21.7381 28.47 21.7485 28.3255 21.7283 28.1837L21.1858 24.3887" stroke="#165CFD" stroke-width="1.5" stroke-linecap="round" stroke-linejoin="round"/>
</g>
<defs>
<clipPath id="clip0_6_1962">
<rect width="32" height="32" fill="white" transform="translate(0.738281 0.325195)"/>
</clipPath>
</defs>
</svg>
